<svg xmlns:svg="http://www.w3.org/2000/svg" xmlns="http://www.w3.org/2000/svg" viewBox="0 0 100 50"
preserveAspectRatio="xMidYMin meet">

<symbol id="redo" viewBox="0 0 100 50"
preserveAspectRatio="xMidYMid meet">
	<path d="m 95.704654,7.5 0,35 -35,0 13.792969,-13.792969 C 64.502046,21.085305 54.07777,18.808483 44.585514,20.34375 33.419986,22.14955 23.335071,29.364012 17.118717,40.945312 A 5.6505651,5.6505651 0 1 1 7.1636383,35.599609 C 14.884532,21.215309 27.964507,11.586053 42.782779,9.1894531 44.635063,8.8898531 46.510098,8.7053719 48.40192,8.6386719 59.810611,8.2366939 71.785816,12.116458 82.540592,20.664062 L 95.704654,7.5 Z" />
</symbol>
<symbol  id="undo" viewBox="0 0 100 50"
preserveAspectRatio="xMidYMid meet">
	<path d="m 6.4511719,7.5 0,35 35.0000001,0 -13.792969,-13.792969 c 9.995577,-7.621726 20.419853,-9.898548 29.912109,-8.363281 11.165528,1.8058 21.250443,9.020262 27.466797,20.601562 a 5.6505651,5.6505651 0 1 0 9.955079,-5.345703 C 87.271294,21.215309 74.191319,11.586053 59.373047,9.1894531 57.520763,8.8898531 55.645728,8.7053719 53.753906,8.6386719 42.345215,8.2366939 30.37001,12.116458 19.615234,20.664062 L 6.4511719,7.5 Z" />
</symbol>
</svg>
